<svg width="219" height="101" viewBox="0 0 219 101" fill="none" xmlns="http://www.w3.org/2000/svg">
<path fill-rule="evenodd" clip-rule="evenodd" d="M95 77.1318H5C2.24 77.1318 0 74.8918 0 72.1318V5.46509C0 2.70509 2.24 0.465088 5 0.465088H95C97.76 0.465088 100 2.70509 100 5.46509V72.1318C100 74.8918 97.76 77.1318 95 77.1318Z" fill="#0455BF"/>
<path fill-rule="evenodd" clip-rule="evenodd" d="M85 70.465H10C8.16002 70.465 6.66669 68.9717 6.66669 67.1317V10.465C6.66669 8.62505 8.16002 7.13171 10 7.13171H83.3334C85.1734 7.13171 86.6667 8.62505 86.6667 10.465V68.7984C86.6667 69.7184 85.92 70.465 85 70.465Z" fill="#FDFEFF"/>
<path fill-rule="evenodd" clip-rule="evenodd" d="M10 67.1317V10.465C10 8.62505 11.4934 7.13171 13.3334 7.13171H10C8.16002 7.13171 6.66669 8.62505 6.66669 10.465V67.1317C6.66669 68.9717 8.16002 70.465 10 70.465H13.3334C11.4934 70.465 10 68.9717 10 67.1317Z" fill="#DFEAEF"/>
<path fill-rule="evenodd" clip-rule="evenodd" d="M65 38.7985C65 47.0807 58.2822 53.7985 50 53.7985C41.7178 53.7985 35 47.0807 35 38.7985C35 30.5162 41.7178 23.7985 50 23.7985C58.2822 23.7985 65 30.5162 65 38.7985Z" fill="#0455BF"/>
<path fill-rule="evenodd" clip-rule="evenodd" d="M56.6666 45.4651C56.6666 44.2762 57.3088 43.1829 58.3333 42.5918C56.1199 41.2806 53.3155 42.8873 53.3333 45.4651V50.4651C54.4533 50.4651 55.5733 50.334 56.6666 50.0829V45.4651Z" fill="#004787"/>
<path fill-rule="evenodd" clip-rule="evenodd" d="M53.3333 50.4652C47.6911 50.4741 42.5267 47.3141 39.9644 42.2874C37.4044 37.263 37.8822 31.2296 41.1978 26.663C37.64 29.2407 35.3911 33.243 35.0444 37.6185C34.6955 41.9941 36.2844 46.2985 39.3933 49.4052C42.4911 52.5052 46.7978 54.0941 51.1711 53.7474C55.5467 53.3985 59.5578 51.1519 62.1267 47.5919C59.5755 49.4585 56.4933 50.4652 53.3333 50.4652Z" fill="#004787"/>
<path fill-rule="evenodd" clip-rule="evenodd" d="M46.6667 45.4651C45.7467 45.4651 45 44.7184 45 43.7984V33.7984C45 32.5562 46.3022 31.7495 47.4133 32.3051L57.4133 37.3051C58.4289 37.8184 58.6467 39.1717 57.8467 39.9695C57.5867 40.2317 57.5867 40.2317 47.4133 45.2829C47.1778 45.4051 46.9267 45.4651 46.6667 45.4651Z" fill="#FEBC00"/>
<path fill-rule="evenodd" clip-rule="evenodd" d="M57.4131 37.3053L57.0865 37.1409L50.7465 40.292C49.6354 40.8475 48.3331 40.0409 48.3331 38.7987V32.7653L47.4131 32.3053C46.302 31.7498 44.9998 32.5564 44.9998 33.7987V43.7987C44.9909 45.0409 46.2931 45.8475 47.4042 45.3009C57.5687 40.2475 57.5687 40.2475 57.8376 39.9875C58.6376 39.1809 58.4198 37.8253 57.4042 37.3231L57.4131 37.3053Z" fill="#EDAA03"/>
<path fill-rule="evenodd" clip-rule="evenodd" d="M31.6667 57.1317H16.6667V60.465H63.3334V57.1317H31.6667Z" fill="#0455BF"/>
<path fill-rule="evenodd" clip-rule="evenodd" d="M93.3333 35.4651C95.1733 35.4651 96.6667 37.3051 96.6667 38.7984C96.6667 40.6384 95.1733 42.1318 93.3333 42.1318C91.4933 42.1318 90 40.2918 90 38.7984C90 36.9584 91.4933 35.4651 93.3333 35.4651Z" fill="#FEBC00"/>
<path fill-rule="evenodd" clip-rule="evenodd" d="M95 40.4651C92.5778 40.474 90.9645 37.9651 91.9711 35.7695C89.8356 36.714 89.3133 39.5184 90.9645 41.1673C92.6222 42.8251 95.4178 42.3051 96.3711 40.1695C95.9378 40.3606 95.4689 40.4651 95 40.4651Z" fill="#EDAA03"/>
<path fill-rule="evenodd" clip-rule="evenodd" d="M79.9999 67.1317C78.1599 67.1317 76.6666 68.625 76.6666 70.465V65.465C76.6666 61.0206 69.9999 61.0206 69.9999 65.465V58.7984C69.9999 54.3539 63.3333 54.3539 63.3333 58.7984V45.465C63.3333 41.0206 56.6666 41.0206 56.6666 45.465V79.085C56.6666 80.9339 54.4355 81.8539 53.1333 80.5517L46.6666 74.085C45.3733 72.7473 43.2288 72.7317 41.9177 74.0495C40.5999 75.3606 40.6155 77.505 41.9533 78.7984L49.0199 85.8739L51.9955 88.8428C55.0777 91.9228 56.8133 96.1073 56.8133 100.465H79.0199V99.8406C79.0199 97.445 79.7733 95.1095 81.1711 93.1562C82.5777 91.2117 83.3333 88.8762 83.3333 86.4806V70.465C83.3333 68.625 81.8399 67.1317 79.9999 67.1317Z" fill="#ECC19C"/>
<path fill-rule="evenodd" clip-rule="evenodd" d="M26.6666 62.1316C23.6977 62.1316 22.2133 58.5383 24.3066 56.4383C26.4066 54.345 30 55.8294 30 58.7983C30 60.6383 28.5066 62.1316 26.6666 62.1316Z" fill="#FEBC00"/>
<path fill-rule="evenodd" clip-rule="evenodd" d="M28.3333 60.4651C25.9111 60.474 24.2978 57.9651 25.3044 55.7695C23.1689 56.714 22.6467 59.5184 24.2978 61.1673C25.9555 62.8251 28.7511 62.3051 29.7044 60.1695C29.2711 60.3606 28.8022 60.4651 28.3333 60.4651Z" fill="#EDAA03"/>
<path fill-rule="evenodd" clip-rule="evenodd" d="M41.9531 74.0849C42.1619 73.8849 42.3953 73.7115 42.6397 73.5649C40.1464 72.1049 37.1086 74.3115 37.7175 77.1315H41.0508C40.8153 76.0293 41.1553 74.8827 41.9531 74.0849ZM53.333 77.1316H56.6663V70.465H53.333V77.1316Z" fill="#004787"/>
<mask id="mask0_66_2818" style="mask-type:luminance" maskUnits="userSpaceOnUse" x="0" y="0" width="100" height="101">
<path fill-rule="evenodd" clip-rule="evenodd" d="M0 100.465H100V0.465088H0V100.465Z" fill="white"/>
</mask>
<g mask="url(#mask0_66_2818)">
<path fill-rule="evenodd" clip-rule="evenodd" d="M53.3333 70.4651H56.6666V60.4651H53.3333V70.4651ZM56.6666 52.2184C56.2755 52.4095 55.8777 52.5917 55.4777 52.7473C55.3377 52.8006 55.2 52.8517 55.0511 52.9051C54.6777 53.0428 54.2977 53.1562 53.9066 53.2606C53.7422 53.3028 53.56 53.3562 53.3844 53.3984L53.3244 53.4162V57.1317H56.6577L56.6666 52.2184Z" fill="#DFEAEF"/>
<path fill-rule="evenodd" clip-rule="evenodd" d="M56.6667 50.083C55.5733 50.3341 54.4533 50.4652 53.3333 50.4652V53.4075L53.3933 53.3986C54.1067 53.2252 54.8 53.0075 55.4778 52.7475C55.8844 52.583 56.2844 52.4186 56.6667 52.2097V50.083ZM53.3333 60.4652H56.6666V57.1319H53.3333V60.4652Z" fill="#004787"/>
</g>
<path d="M127.447 57.7851C127.367 57.7584 127.267 57.7251 127.147 57.6851C127.027 57.6451 126.847 57.5718 126.607 57.4651H117.347C117.214 57.2918 117.101 57.0984 117.007 56.8851C116.927 56.6584 116.887 56.4318 116.887 56.2051C117.327 56.2051 117.654 56.1251 117.867 55.9651C118.094 55.8051 118.207 55.5384 118.207 55.1651V45.7851C118.207 45.4118 118.101 45.1518 117.887 45.0051C117.674 44.8451 117.347 44.7651 116.907 44.7651C116.907 44.5384 116.947 44.3184 117.027 44.1051C117.121 43.8784 117.234 43.6784 117.367 43.5051H125.127C125.367 43.3984 125.634 43.3184 125.927 43.2651C126.221 43.1984 126.494 43.1651 126.747 43.1651C126.867 43.3784 127.001 43.6918 127.147 44.1051C127.307 44.5051 127.447 44.9051 127.567 45.3051C127.687 45.7051 127.747 46.0184 127.747 46.2451C127.641 46.3518 127.467 46.4584 127.227 46.5651C127.001 46.6718 126.767 46.7651 126.527 46.8451C126.287 46.9251 126.087 46.9851 125.927 47.0251C125.781 46.5851 125.521 46.1718 125.147 45.7851C124.787 45.3984 124.341 45.2051 123.807 45.2051H121.547V49.4251H122.987C123.361 49.4251 123.667 49.3184 123.907 49.1051C124.161 48.8784 124.287 48.4984 124.287 47.9651C124.887 47.9651 125.427 48.1051 125.907 48.3851V52.1051C125.454 52.3851 124.921 52.5251 124.307 52.5251C124.307 51.9918 124.181 51.6051 123.927 51.3651C123.687 51.1251 123.381 51.0051 123.007 51.0051H121.547V55.7051H123.967C124.554 55.7051 125.047 55.4651 125.447 54.9851C125.861 54.4918 126.114 53.9118 126.207 53.2451H128.347C128.347 53.4451 128.314 53.7584 128.247 54.1851C128.194 54.5984 128.121 55.0518 128.027 55.5451C127.947 56.0251 127.854 56.4718 127.747 56.8851C127.641 57.2984 127.541 57.5984 127.447 57.7851ZM133.333 57.7251C132.613 57.7251 131.933 57.5451 131.293 57.1851C130.666 56.8118 130.159 56.2518 129.773 55.5051C129.386 54.7584 129.193 53.8184 129.193 52.6851C129.193 51.3384 129.439 50.2184 129.933 49.3251C130.439 48.4318 131.093 47.7651 131.893 47.3251C132.706 46.8851 133.573 46.6651 134.493 46.6651C134.666 46.6651 134.859 46.6718 135.073 46.6851C135.286 46.6984 135.499 46.7184 135.713 46.7451L135.653 45.5451V44.5451C135.653 44.2384 135.566 43.9984 135.393 43.8251C135.219 43.6518 134.859 43.5651 134.313 43.5651V42.7451C134.646 42.5584 135.039 42.3918 135.493 42.2451C135.946 42.0984 136.393 41.9851 136.833 41.9051C137.273 41.8118 137.626 41.7651 137.893 41.7651C138.199 41.7651 138.419 41.8384 138.553 41.9851C138.699 42.1184 138.773 42.3518 138.773 42.6851V55.2451C138.773 55.8984 139.093 56.2851 139.733 56.4051L139.753 56.9651C139.566 57.2184 139.279 57.4051 138.893 57.5251C138.506 57.6584 138.113 57.7251 137.713 57.7251C137.366 57.7251 136.999 57.6451 136.613 57.4851C136.226 57.3384 135.953 57.1051 135.793 56.7851C135.513 57.1584 135.166 57.4051 134.753 57.5251C134.353 57.6584 133.879 57.7251 133.333 57.7251ZM134.713 56.0251C135.126 56.0251 135.439 55.9051 135.653 55.6651V48.6651C135.373 48.2784 134.999 48.0851 134.533 48.0851C134.173 48.0851 133.846 48.2118 133.553 48.4651C133.259 48.7051 133.026 49.1118 132.853 49.6851C132.679 50.2451 132.593 51.0118 132.593 51.9851C132.593 53.3584 132.793 54.3784 133.193 55.0451C133.606 55.6984 134.113 56.0251 134.713 56.0251ZM144.281 57.6051C143.348 57.6051 142.621 57.3184 142.101 56.7451C141.581 56.1718 141.321 55.3984 141.321 54.4251V48.9251C141.321 48.6984 141.234 48.5384 141.061 48.4451C140.888 48.3518 140.648 48.3051 140.341 48.3051V47.4251C140.514 47.2784 140.874 47.1251 141.421 46.9651C141.981 46.7918 142.608 46.7051 143.301 46.7051C143.821 46.7051 144.161 46.7651 144.321 46.8851C144.494 47.0051 144.581 47.2984 144.581 47.7651V54.4851C144.581 54.8851 144.648 55.1918 144.781 55.4051C144.914 55.6184 145.148 55.7251 145.481 55.7251C145.761 55.7251 146.028 55.6384 146.281 55.4651C146.548 55.2918 146.768 55.0918 146.941 54.8651V48.9251C146.941 48.6984 146.841 48.5384 146.641 48.4451C146.441 48.3518 146.168 48.3051 145.821 48.3051V47.4251C146.008 47.2784 146.374 47.1251 146.921 46.9651C147.468 46.7918 148.114 46.7051 148.861 46.7051C149.381 46.7051 149.734 46.7651 149.921 46.8851C150.108 47.0051 150.201 47.2984 150.201 47.7651V55.1251C150.201 55.4451 150.281 55.7118 150.441 55.9251C150.614 56.1384 150.854 56.2584 151.161 56.2851V56.8451C150.948 57.0984 150.608 57.2918 150.141 57.4251C149.688 57.5451 149.248 57.6051 148.821 57.6051C148.381 57.6051 147.994 57.4918 147.661 57.2651C147.341 57.0251 147.128 56.6851 147.021 56.2451C146.368 57.1518 145.454 57.6051 144.281 57.6051ZM152.366 57.4651C152.073 57.1318 151.926 56.7051 151.926 56.1851C152.406 56.1851 152.76 56.1118 152.986 55.9651C153.226 55.8184 153.346 55.5584 153.346 55.1851V45.7851C153.346 45.4118 153.22 45.1518 152.966 45.0051C152.726 44.8451 152.38 44.7651 151.926 44.7651C151.926 44.2718 152.08 43.8518 152.386 43.5051H155.526C156.1 43.5051 156.58 43.5851 156.966 43.7451C157.366 43.9051 157.686 44.2718 157.926 44.8451L160.046 50.0651L160.846 52.5451L161.606 50.0651L164.126 43.5051H168.686C168.993 43.8518 169.146 44.2718 169.146 44.7651C168.693 44.7651 168.353 44.8451 168.126 45.0051C167.913 45.1518 167.806 45.4118 167.806 45.7851V55.1851C167.806 55.5584 167.906 55.8184 168.106 55.9651C168.32 56.1118 168.666 56.1851 169.146 56.1851C169.146 56.6918 168.993 57.1184 168.686 57.4651H163.726C163.593 57.3051 163.486 57.1118 163.406 56.8851C163.326 56.6584 163.286 56.4251 163.286 56.1851C163.74 56.1851 164.08 56.1118 164.306 55.9651C164.546 55.8184 164.666 55.5584 164.666 55.1851V46.9051L161.266 55.4851C161.093 55.9251 160.84 56.2184 160.506 56.3651C160.186 56.4984 159.8 56.5651 159.346 56.5651L155.386 46.9051V55.1851C155.386 55.5584 155.52 55.8184 155.786 55.9651C156.066 56.1118 156.46 56.1851 156.966 56.1851C156.966 56.4251 156.926 56.6584 156.846 56.8851C156.766 57.1118 156.66 57.3051 156.526 57.4651H152.366ZM174.777 57.6451C173.284 57.6451 172.09 57.1718 171.197 56.2251C170.317 55.2784 169.877 53.9584 169.877 52.2651C169.877 51.1051 170.097 50.1051 170.537 49.2651C170.977 48.4118 171.57 47.7584 172.317 47.3051C173.077 46.8518 173.937 46.6251 174.897 46.6251C176.097 46.6251 177.057 46.9784 177.777 47.6851C178.51 48.3784 178.877 49.3584 178.877 50.6251C178.877 51.1318 178.79 51.5784 178.617 51.9651C178.457 52.3384 178.117 52.5251 177.597 52.5251H173.277C173.317 53.5784 173.557 54.3251 173.997 54.7651C174.45 55.2051 175.037 55.4251 175.757 55.4251C176.21 55.4251 176.63 55.3584 177.017 55.2251C177.404 55.0784 177.764 54.8784 178.097 54.6251C178.217 54.7318 178.31 54.8984 178.377 55.1251C178.457 55.3384 178.497 55.5184 178.497 55.6651C178.497 55.8784 178.344 56.1451 178.037 56.4651C177.744 56.7718 177.317 57.0451 176.757 57.2851C176.21 57.5251 175.55 57.6451 174.777 57.6451ZM173.277 51.0051H175.297C175.524 51.0051 175.664 50.9184 175.717 50.7451C175.784 50.5718 175.817 50.3584 175.817 50.1051C175.817 49.2518 175.71 48.6918 175.497 48.4251C175.297 48.1451 175.057 48.0051 174.777 48.0051C174.55 48.0051 174.324 48.0918 174.097 48.2651C173.87 48.4384 173.684 48.7451 173.537 49.1851C173.39 49.6118 173.304 50.2184 173.277 51.0051ZM180.377 57.4651C180.231 57.3184 180.111 57.1584 180.017 56.9851C179.937 56.8118 179.897 56.6184 179.897 56.4051C180.297 56.4051 180.584 56.3184 180.757 56.1451C180.931 55.9718 181.017 55.6918 181.017 55.3051V49.4651C181.017 49.1184 180.917 48.8651 180.717 48.7051C180.531 48.5451 180.184 48.4651 179.677 48.4651V47.5651C179.984 47.3918 180.371 47.2318 180.837 47.0851C181.317 46.9384 181.777 46.8251 182.217 46.7451C182.671 46.6518 183.017 46.6051 183.257 46.6051C183.537 46.6051 183.764 46.6918 183.937 46.8651C184.124 47.0384 184.231 47.4118 184.257 47.9851C184.591 47.5718 185.011 47.2384 185.517 46.9851C186.037 46.7318 186.637 46.6051 187.317 46.6051C188.251 46.6051 188.951 46.8451 189.417 47.3251C189.897 47.7918 190.137 48.5918 190.137 49.7251V55.1851C190.137 55.8384 190.457 56.2251 191.097 56.3451L191.117 56.9251C190.984 57.0584 190.771 57.1784 190.477 57.2851C190.184 57.3784 189.864 57.4518 189.517 57.5051C189.184 57.5584 188.871 57.5851 188.577 57.5851C188.004 57.5851 187.577 57.4784 187.297 57.2651C187.031 57.0518 186.897 56.7118 186.897 56.2451V50.0051C186.897 49.4584 186.777 49.0784 186.537 48.8651C186.297 48.6518 186.004 48.5451 185.657 48.5451C185.111 48.5451 184.651 48.7651 184.277 49.2051V55.3051C184.277 55.6918 184.357 55.9718 184.517 56.1451C184.691 56.3184 184.977 56.4051 185.377 56.4051C185.377 56.8051 185.224 57.1584 184.917 57.4651H180.377ZM195.869 57.6051C195.309 57.6051 194.795 57.5051 194.329 57.3051C193.862 57.0918 193.482 56.7318 193.189 56.2251C192.909 55.7184 192.769 55.0251 192.769 54.1451V48.6451H191.509V47.4251C191.869 47.3718 192.209 47.1451 192.529 46.7451C192.849 46.3451 193.122 45.8518 193.349 45.2651C193.589 44.6784 193.742 44.0918 193.809 43.5051C194.049 43.4651 194.269 43.4451 194.469 43.4451C195.002 43.4451 195.369 43.5984 195.569 43.9051C195.782 44.2118 195.889 44.4984 195.889 44.7651V46.8651H198.209C198.209 47.1851 198.189 47.5051 198.149 47.8251C198.122 48.1318 198.035 48.4051 197.889 48.6451H195.929V54.2851C195.929 54.7118 196.015 54.9984 196.189 55.1451C196.362 55.2784 196.582 55.3451 196.849 55.3451C197.115 55.3451 197.382 55.2784 197.649 55.1451C197.929 54.9984 198.149 54.8318 198.309 54.6451C198.455 54.7651 198.555 54.9451 198.609 55.1851C198.662 55.4118 198.689 55.5851 198.689 55.7051C198.689 55.9984 198.589 56.2918 198.389 56.5851C198.189 56.8784 197.875 57.1251 197.449 57.3251C197.035 57.5118 196.509 57.6051 195.869 57.6051ZM204.014 57.7251C203.067 57.7251 202.227 57.5251 201.494 57.1251C200.76 56.7118 200.187 56.1118 199.774 55.3251C199.374 54.5251 199.174 53.5384 199.174 52.3651C199.174 51.1118 199.387 50.0584 199.814 49.2051C200.24 48.3518 200.834 47.7051 201.594 47.2651C202.354 46.8251 203.227 46.6051 204.214 46.6051C205.174 46.6051 206.014 46.8118 206.734 47.2251C207.467 47.6384 208.034 48.2518 208.434 49.0651C208.847 49.8651 209.054 50.8584 209.054 52.0451C209.054 53.2851 208.84 54.3318 208.414 55.1851C207.987 56.0251 207.394 56.6584 206.634 57.0851C205.874 57.5118 205 57.7251 204.014 57.7251ZM204.174 56.2851C204.454 56.2851 204.694 56.1851 204.894 55.9851C205.107 55.7851 205.267 55.4184 205.374 54.8851C205.494 54.3384 205.554 53.5518 205.554 52.5251C205.554 51.2718 205.494 50.3251 205.374 49.6851C205.254 49.0318 205.08 48.5918 204.854 48.3651C204.627 48.1384 204.36 48.0251 204.054 48.0251C203.774 48.0251 203.527 48.1251 203.314 48.3251C203.1 48.5251 202.934 48.8984 202.814 49.4451C202.707 49.9918 202.654 50.7851 202.654 51.8251C202.654 53.0651 202.714 54.0051 202.834 54.6451C202.967 55.2851 203.147 55.7184 203.374 55.9451C203.6 56.1718 203.867 56.2851 204.174 56.2851ZM210.629 57.4651C210.482 57.3184 210.369 57.1584 210.289 56.9851C210.209 56.8118 210.169 56.6118 210.169 56.3851C210.556 56.3851 210.829 56.3051 210.989 56.1451C211.162 55.9718 211.249 55.6851 211.249 55.2851V49.5051C211.249 49.1584 211.156 48.9118 210.969 48.7651C210.782 48.6051 210.436 48.5251 209.929 48.5251V47.6251C210.249 47.4384 210.629 47.2784 211.069 47.1451C211.509 46.9984 211.942 46.8851 212.369 46.8051C212.796 46.7118 213.129 46.6651 213.369 46.6651C213.676 46.6651 213.896 46.7718 214.029 46.9851C214.176 47.1984 214.249 47.6584 214.249 48.3651C214.396 48.0851 214.609 47.8118 214.889 47.5451C215.182 47.2651 215.509 47.0384 215.869 46.8651C216.229 46.6918 216.602 46.6051 216.989 46.6051C217.616 46.6051 218.062 46.7651 218.329 47.0851C218.596 47.4051 218.729 47.8184 218.729 48.3251C218.729 48.8984 218.582 49.3651 218.289 49.7251C217.996 50.0851 217.589 50.2651 217.069 50.2651C216.616 50.2651 216.256 50.1384 215.989 49.8851C215.722 49.6184 215.589 49.3184 215.589 48.9851C215.589 48.7718 215.609 48.6051 215.649 48.4851C215.436 48.5384 215.229 48.6118 215.029 48.7051C214.829 48.7851 214.629 48.9184 214.429 49.1051V55.1051C214.429 55.4118 214.476 55.6584 214.569 55.8451C214.662 56.0318 214.842 56.1718 215.109 56.2651C215.389 56.3451 215.802 56.3851 216.349 56.3851C216.349 56.6118 216.322 56.8118 216.269 56.9851C216.216 57.1584 216.116 57.3184 215.969 57.4651H210.629Z" fill="#004390"/>
</svg>
