<svg width="40" height="41" viewBox="0 0 40 41" fill="none" xmlns="http://www.w3.org/2000/svg">
<path d="M0 8.38208C0 3.9638 3.58172 0.38208 8 0.38208H32C36.4183 0.38208 40 3.9638 40 8.38208V32.3821C40 36.8004 36.4183 40.3821 32 40.3821H8C3.58172 40.3821 0 36.8004 0 32.3821V8.38208Z" fill="#C3E2FF"/>
<path d="M18.3352 14.5489C18.3352 14.1068 18.5108 13.6829 18.8234 13.3704C19.1359 13.0578 19.5598 12.8822 20.0019 12.8822C20.4439 12.8822 20.8678 13.0578 21.1804 13.3704C21.4929 13.6829 21.6685 14.1068 21.6685 14.5489C22.6255 15.0014 23.4414 15.7058 24.0286 16.5866C24.6158 17.4674 24.9522 18.4914 25.0019 19.5489V22.0489C25.0646 22.567 25.2481 23.0631 25.5375 23.4973C25.827 23.9315 26.2144 24.2917 26.6685 24.5489H13.3352C13.7893 24.2917 14.1767 23.9315 14.4662 23.4973C14.7557 23.0631 14.9392 22.567 15.0019 22.0489V19.5489C15.0515 18.4914 15.388 17.4674 15.9752 16.5866C16.5624 15.7058 17.3782 15.0014 18.3352 14.5489" stroke="#004390" stroke-width="1.5" stroke-linecap="round" stroke-linejoin="round"/>
<path d="M17.4971 24.5488V25.3822C17.4971 26.0452 17.7605 26.6811 18.2293 27.1499C18.6981 27.6188 19.334 27.8822 19.9971 27.8822C20.6601 27.8822 21.296 27.6188 21.7648 27.1499C22.2337 26.6811 22.4971 26.0452 22.4971 25.3822V24.5488" stroke="#004390" stroke-width="1.5" stroke-linecap="round" stroke-linejoin="round"/>
</svg>
