<svg width="24" height="25" viewBox="0 0 24 25" fill="none" xmlns="http://www.w3.org/2000/svg">
<path d="M10.5 10.9651C10.5 11.3088 10.5312 11.6213 10.5938 11.9338C10.6562 12.1838 10.5938 12.4338 10.4062 12.6213L5.5 17.5276V19.9651H7.5V18.7151C7.5 18.3088 7.8125 17.9651 8.25 17.9651H9.5V16.7151C9.5 16.3088 9.8125 15.9651 10.25 15.9651H11.9375L12.8438 15.0588C13.0312 14.8713 13.2812 14.8088 13.5312 14.8713C13.8438 14.9338 14.1562 14.9651 14.5 14.9651C16.6875 14.9651 18.5 13.1838 18.5 10.9651C18.5 8.77759 16.6875 6.96509 14.5 6.96509C12.2812 6.96509 10.5 8.77759 10.5 10.9651ZM14.5 5.46509C17.5312 5.46509 20 7.93384 20 10.9651C20 14.0276 17.5312 16.4651 14.5 16.4651C14.1875 16.4651 13.9062 16.4651 13.625 16.4026L12.7812 17.2463C12.625 17.4026 12.4375 17.4651 12.25 17.4651H11V18.7151C11 19.1526 10.6562 19.4651 10.25 19.4651H9V20.7151C9 21.1526 8.65625 21.4651 8.25 21.4651H4.75C4.3125 21.4651 4 21.1526 4 20.7151V17.2151C4 17.0276 4.0625 16.8401 4.21875 16.6838L9.0625 11.8401C9 11.5588 9 11.2776 9 10.9651C9 7.93384 11.4375 5.46509 14.5 5.46509ZM15.5 10.9651C14.9375 10.9651 14.5 10.5276 14.5 9.96509C14.5 9.43384 14.9375 8.96509 15.5 8.96509C16.0312 8.96509 16.5 9.43384 16.5 9.96509C16.5 10.5276 16.0312 10.9651 15.5 10.9651Z" fill="#1C1C1E"/>
</svg>
