<svg width="24" height="27" viewBox="0 0 24 27" fill="none" xmlns="http://www.w3.org/2000/svg">
<g clip-path="url(#clip0_65_1147)">
<path d="M10.325 5.0854C10.751 3.18914 13.249 3.18914 13.675 5.0854C13.7389 5.37027 13.8642 5.63482 14.0407 5.85751C14.2172 6.08021 14.4399 6.25475 14.6907 6.36694C14.9414 6.47913 15.2132 6.5258 15.4838 6.50314C15.7544 6.48048 16.0162 6.38914 16.248 6.23655C17.791 5.22147 19.558 7.12853 18.618 8.79585C18.4769 9.04601 18.3924 9.3286 18.3715 9.62063C18.3506 9.91267 18.3938 10.2059 18.4975 10.4765C18.6013 10.7472 18.7627 10.9875 18.9687 11.1781C19.1747 11.3687 19.4194 11.5041 19.683 11.5733C21.439 12.0333 21.439 14.7308 19.683 15.1909C19.4192 15.2599 19.1742 15.3952 18.968 15.5858C18.7618 15.7764 18.6001 16.0169 18.4963 16.2876C18.3924 16.5584 18.3491 16.8519 18.3701 17.1441C18.3911 17.4364 18.4757 17.7191 18.617 17.9694C19.557 19.6356 17.791 21.5438 16.247 20.5287C16.0153 20.3763 15.7537 20.2851 15.4832 20.2625C15.2128 20.2399 14.9412 20.2865 14.6906 20.3986C14.44 20.5107 14.2174 20.685 14.0409 20.9074C13.8645 21.1299 13.7391 21.3941 13.675 21.6788C13.249 23.575 10.751 23.575 10.325 21.6788C10.2611 21.3939 10.1358 21.1293 9.95929 20.9067C9.7828 20.684 9.56011 20.5094 9.30935 20.3972C9.05859 20.285 8.78683 20.2384 8.51621 20.261C8.24559 20.2837 7.98375 20.375 7.752 20.5276C6.209 21.5427 4.442 19.6356 5.382 17.9683C5.5231 17.7182 5.60755 17.4356 5.62848 17.1435C5.64942 16.8515 5.60624 16.5582 5.50247 16.2876C5.3987 16.017 5.23726 15.7766 5.03127 15.5861C4.82529 15.3955 4.58056 15.2601 4.317 15.1909C2.561 14.7308 2.561 12.0333 4.317 11.5733C4.5808 11.5043 4.82578 11.369 5.032 11.1784C5.23822 10.9878 5.39985 10.7473 5.50375 10.4765C5.60764 10.2057 5.65085 9.91227 5.62987 9.62003C5.60889 9.32779 5.5243 9.04504 5.383 8.79477C4.443 7.12853 6.209 5.22039 7.753 6.23547C8.753 6.89203 10.049 6.31106 10.325 5.0854Z" stroke="white" stroke-width="1.5" stroke-linecap="round" stroke-linejoin="round"/>
<path d="M12 16.6216C13.6569 16.6216 15 15.1712 15 13.382C15 11.5928 13.6569 10.1423 12 10.1423C10.3431 10.1423 9 11.5928 9 13.382C9 15.1712 10.3431 16.6216 12 16.6216Z" stroke="white" stroke-width="1.5" stroke-linecap="round" stroke-linejoin="round"/>
</g>
<defs>
<clipPath id="clip0_65_1147">
<rect width="24" height="25.917" fill="white" transform="translate(0 0.423584)"/>
</clipPath>
</defs>
</svg>
